<svg width="121" height="47" viewBox="0 0 121 47" fill="none" xmlns="http://www.w3.org/2000/svg">
<g clip-path="url(#clip0_1_703)">
<path d="M20.6469 5.55173C20.668 5.50571 20.668 5.4326 20.5941 5.50137C20.4354 5.63125 20.1467 5.90225 19.8295 6.34839C17.4833 9.61243 20.2208 12.0177 20.3921 13.3482C20.4295 13.6028 20.3921 13.8393 20.3162 14.0305C20.0092 14.6457 19.399 14.5733 19.071 14.3043C18.6508 13.951 18.4685 13.2239 18.6562 12.5224C18.6621 12.4986 18.6287 12.4843 18.6172 12.5083C17.8605 13.7813 18.0862 15.1999 18.4462 16.1817C19.2272 18.3019 21.6564 19.4457 23.8167 19.5096C27.0897 19.6145 29.8264 16.9057 29.9356 13.4701C30.1136 7.68294 24.0897 4.84534 24.2977 0.23549C24.3074 0.209157 24.2692 0.196631 24.2526 0.219129C23.7426 0.757043 22.9877 1.64342 22.7177 2.57966C21.9972 5.10969 23.2251 6.37932 23.2028 7.50576C23.1564 8.6675 22.3556 9.2683 21.4892 9.11005C20.7236 8.98043 19.5841 7.81997 20.6469 5.55173Z" fill="#E50012"/>
<path d="M13.8867 21.7661C15.0228 20.3406 16.4528 19.1604 18.0859 18.319C17.6874 17.8438 17.3708 17.3084 17.1467 16.7076C16.9533 16.2016 16.7385 15.4285 16.7298 14.5393C13.4792 16.0884 10.8015 18.6419 9.10565 21.7994C9.8695 21.7357 10.729 21.6976 11.7328 21.6976C12.5328 21.6974 13.248 21.7211 13.8867 21.7661Z" fill="#F29600"/>
<path d="M26.3987 24.7559C19.0641 24.7559 19.0641 22.7584 11.7328 22.7584C6.05668 22.7584 4.77616 23.9577 1.09232 24.494V28.4811C4.77616 27.9383 6.05668 26.7475 11.7328 26.7475C19.0641 26.7475 19.0641 28.7386 26.3987 28.7386C28.231 28.7386 29.6049 28.6125 30.7528 28.4226V24.4404C29.6049 24.6301 28.231 24.7559 26.3987 24.7559Z" fill="#F29600"/>
<path d="M26.3987 29.8072C19.0641 29.8072 19.0641 27.811 11.7328 27.811C6.05668 27.811 4.77616 29.0047 1.09232 29.5429V33.5266C4.77616 32.9918 6.05668 31.7958 11.7328 31.7958C19.0641 31.7958 19.0641 33.7882 26.3987 33.7882C28.231 33.7882 29.6049 33.6606 30.7528 33.476V29.4856C29.6049 29.6771 28.231 29.8072 26.3987 29.8072Z" fill="#F29600"/>
<path d="M26.3987 34.8576C19.0641 34.8576 19.0641 32.8629 11.7328 32.8629C6.05668 32.8629 4.77616 34.0553 1.09232 34.5963V38.5826C4.77616 38.0378 6.05668 36.8513 11.7328 36.8513C19.0641 36.8513 19.0641 38.8385 26.3987 38.8385C28.231 38.8385 29.6049 38.713 30.7528 38.5195V34.536C29.6049 34.7247 28.231 34.8576 26.3987 34.8576Z" fill="#F29600"/>
<path d="M31.2182 14.527C30.9954 15.901 30.431 17.1514 29.6049 18.1707C33.9116 20.2559 36.8836 24.6533 36.8836 29.7433C36.8836 36.0163 32.3467 41.2568 26.3713 42.3736V37.4881H21.6059V42.3723C18.6228 41.8098 15.9903 40.2222 14.1144 37.9958C13.4087 37.9419 12.6257 37.9128 11.7328 37.9128C10.8057 37.9128 9.99695 37.945 9.28464 38.001C12.1823 43.1129 17.6875 46.5769 23.9836 46.5769C33.3005 46.5769 40.8772 39.0262 40.8772 29.7433C40.8772 23.0322 36.9226 17.2317 31.2182 14.527Z" fill="#F29600"/>
</g>
<path d="M52.308 16.4853C51.476 16.4853 51.06 16.1213 51.06 15.3933C51.06 14.6827 51.476 14.3273 52.308 14.3273H60.992C61.408 14.3273 61.7373 14.5267 61.98 14.9253C62.2227 15.3067 62.2227 15.766 61.98 16.3033C60.212 20.2727 57.17 23.5487 52.854 26.1313C52.4207 26.3913 52.0567 26.322 51.762 25.9233C51.4673 25.5247 51.606 25.1173 52.178 24.7013C55.2287 22.3787 57.4993 19.64 58.99 16.4853H52.308ZM66.01 14.6653C66.01 14.1453 65.9407 13.8247 65.802 13.7033C65.6633 13.582 65.4033 13.478 65.022 13.3913C64.658 13.3047 64.3547 13.2007 64.112 13.0793C63.8693 12.958 63.748 12.7587 63.748 12.4813C63.748 11.9093 64.112 11.6233 64.84 11.6233H67.076C68.1507 11.6233 68.688 12.0047 68.688 12.7673V17.8893H71.99C72.8393 17.8893 73.264 18.2533 73.264 18.9813C73.264 19.7093 72.8393 20.0733 71.99 20.0733H68.688V24.2073C68.688 25.7673 68.0033 26.5473 66.634 26.5473H66.01V14.6653ZM65.672 31.4613C65.672 30.612 65.36 29.884 64.736 29.2773C64.112 28.6707 63.3753 28.3673 62.526 28.3673C61.6767 28.3673 60.94 28.6707 60.316 29.2773C59.7093 29.884 59.406 30.612 59.406 31.4613C59.406 32.3107 59.7093 33.03 60.316 33.6193C60.94 34.226 61.6767 34.5293 62.526 34.5293C63.3753 34.5293 64.112 34.226 64.736 33.6193C65.36 33.03 65.672 32.3107 65.672 31.4613ZM68.376 31.4613C68.376 32.172 68.22 32.848 67.908 33.4893C67.596 34.1307 67.18 34.6853 66.66 35.1533C66.14 35.6387 65.516 36.02 64.788 36.2973C64.0773 36.592 63.3233 36.7393 62.526 36.7393C61.7287 36.7393 60.966 36.592 60.238 36.2973C59.5273 36.02 58.9033 35.6387 58.366 35.1533C57.8633 34.6853 57.456 34.1307 57.144 33.4893C56.8493 32.848 56.702 32.172 56.702 31.4613C56.702 30.7507 56.8493 30.0747 57.144 29.4333C57.456 28.792 57.8633 28.2373 58.366 27.7693C58.9033 27.284 59.5273 26.894 60.238 26.5993C60.9487 26.3047 61.7113 26.1573 62.526 26.1573C63.3233 26.1573 64.0773 26.3047 64.788 26.5993C65.516 26.894 66.14 27.284 66.66 27.7693C67.18 28.2373 67.596 28.792 67.908 29.4333C68.22 30.0747 68.376 30.7507 68.376 31.4613ZM82.1341 20.4373C81.6661 20.264 81.4667 20.004 81.5361 19.6573C81.6401 19.276 82.0301 19.1287 82.7061 19.2153C83.7461 19.3713 84.5347 19.796 85.0721 20.4893C85.6094 21.1653 85.8607 21.8587 85.8261 22.5693C85.7567 23.9213 85.2454 24.9613 84.2921 25.6893C83.7027 26.1227 83.0441 26.426 82.3161 26.5993V28.8093C83.5121 28.8093 84.4914 28.8007 85.2541 28.7833C86.0341 28.7833 86.8574 28.714 87.7241 28.5753C88.4174 28.454 88.8334 28.584 88.9721 28.9653C89.1107 29.3293 88.9721 29.65 88.5561 29.9273C88.0707 30.222 87.2821 30.4733 86.1901 30.6813C85.0981 30.872 83.7374 30.9673 82.1081 30.9673H74.6461C73.8314 30.9673 73.4241 30.6033 73.4241 29.8753C73.4241 29.1647 73.8314 28.8093 74.6461 28.8093H79.6641V26.5993C78.7801 26.4087 78.0001 26.0013 77.3241 25.3773C76.3707 24.528 75.8681 23.4793 75.8161 22.2313C75.7814 20.9487 76.3361 19.822 77.4801 18.8513H74.9321C74.2041 18.8513 73.8401 18.4873 73.8401 17.7593C73.8401 17.0487 74.2561 16.6933 75.0881 16.6933H85.8001C86.6667 16.6933 87.1001 17.0487 87.1001 17.7593C87.1001 18.4873 86.6667 18.8513 85.8001 18.8513H82.4981C81.0594 18.8513 80.0194 19.172 79.3781 19.8133C78.7367 20.4547 78.4507 21.2607 78.5201 22.2313C78.6241 23.7567 79.4041 24.5193 80.8601 24.5193C82.2121 24.5193 82.9834 23.8693 83.1741 22.5693C83.3127 21.4427 82.9661 20.732 82.1341 20.4373ZM77.8441 14.5873L77.1161 13.9633C76.6654 13.5647 76.5874 13.14 76.8821 12.6893C77.1421 12.2907 77.6101 12.23 78.2861 12.5073C79.1354 12.8887 79.8634 13.14 80.4701 13.2613C81.0941 13.3827 81.8914 13.4433 82.8621 13.4433C83.5554 13.4433 83.9021 13.7987 83.9021 14.5093C83.9021 14.856 83.7634 15.1247 83.4861 15.3153C83.2261 15.4887 82.9661 15.5753 82.7061 15.5753L80.7041 15.5493C79.5947 15.5493 78.6414 15.2287 77.8441 14.5873ZM89.6741 14.6653C89.6741 14.1453 89.5874 13.8247 89.4141 13.7033C89.2581 13.5647 88.9894 13.452 88.6081 13.3653C88.2441 13.2787 87.9494 13.1833 87.7241 13.0793C87.5161 12.958 87.4121 12.7587 87.4121 12.4813C87.4121 11.9093 87.7761 11.6233 88.5041 11.6233H90.7401C91.8147 11.6233 92.3521 12.0047 92.3521 12.7673V21.3213H95.6541C96.5034 21.3213 96.9281 21.6853 96.9281 22.4133C96.9281 23.1413 96.5034 23.5053 95.6541 23.5053H92.3521V32.3713C92.3521 33.9313 91.6674 34.7113 90.2981 34.7113H89.6741V14.6653ZM102.808 15.5493C101.976 15.5493 101.56 15.1853 101.56 14.4573C101.56 13.7293 101.976 13.3653 102.808 13.3653H113.806C114.794 13.3653 115.288 13.8767 115.288 14.8993C115.063 18.1407 114.725 20.6627 114.274 22.4653H118.694C119.578 22.4653 120.02 22.8207 120.02 23.5313C120.02 24.2593 119.578 24.6233 118.694 24.6233H110.504V28.6013C110.504 30.3693 109.845 31.2533 108.528 31.2533H107.852V24.6233H98.6481C97.8335 24.6233 97.4261 24.2593 97.4261 23.5313C97.4261 22.8207 97.8335 22.4653 98.6481 22.4653H112.35C112.645 20.004 112.731 17.6987 112.61 15.5493H102.808ZM114.664 35.9593H105.096C103.276 35.9593 102.366 35.1967 102.366 33.6713V30.6293C102.366 30.1093 102.288 29.7887 102.132 29.6673C101.976 29.546 101.725 29.4333 101.378 29.3293C100.962 29.208 100.676 29.0953 100.52 28.9913C100.364 28.8873 100.286 28.6967 100.286 28.4193C100.286 27.8473 100.676 27.5613 101.456 27.5613H103.406C104.498 27.5613 105.044 28.038 105.044 28.9913V33.3853C105.044 33.6453 105.174 33.7753 105.434 33.7753H114.716C115.565 33.7753 115.99 34.1393 115.99 34.8673C115.99 35.5953 115.548 35.9593 114.664 35.9593Z" fill="#493426"/>
<defs>
<clipPath id="clip0_1_703">
<rect width="40" height="46.5306" fill="white" transform="translate(0.950012 0.183334)"/>
</clipPath>
</defs>
</svg>
